<?xml version="1.0" encoding="utf-8"?>
<!-- Generator: Adobe Illustrator 25.2.1, SVG Export Plug-In . SVG Version: 6.00 Build 0)  -->
<svg version="1.1" id="Layer_1" xmlns="http://www.w3.org/2000/svg" xmlns:xlink="http://www.w3.org/1999/xlink" x="0px" y="0px"
	 viewBox="0 0 518 523" style="enable-background:new 0 0 518 523;" xml:space="preserve">
<style type="text/css">
	.st0{stroke:#000000;stroke-width:10;stroke-miterlimit:10;}
</style>
<g id="Layer_2_1_">
	<g id="Layer_1-2">
		<path class="st0" d="M259,28.5c128.4,0.2,232.4,104.4,232.2,232.8c-0.2,128.4-104.4,232.4-232.8,232.2
			C130,493.3,26.1,389.1,26.2,260.7c0.1-93.4,56.1-177.6,142.1-213.9C197,34.7,227.8,28.5,259,28.5 M299.9,365.9
			c13.4,10.5,32.7,8.2,43.3-5l20-25h0.1c10.6-13.4,8.4-32.8-4.9-43.5l-0.3-0.2l-0.2-0.2L306,254V117.5c0-17.1-13.9-31-31-31h-32
			c-17.1,0-31,13.9-31,31V273c0,16.7,7.5,32.6,20.6,43l0.2,0.2h0.3L299.9,365.9 M259,13.5c-137,0-248,111-248,248s111,248,248,248
			s248-111,248-248S396,13.5,259,13.5z M319,357.5c-3.6,0-7.2-1.2-10-3.5l0,0l-67-49.7c-9.5-7.6-15-19.1-15-31.2V117.5
			c0-8.8,7.2-16,16-16h32c8.8,0,16,7.2,16,16v144l58,42.5c6.9,5.5,8,15.6,2.5,22.5c0,0,0,0,0,0l0,0l-20,25
			C328.5,355.3,323.9,357.5,319,357.5z"/>
	</g>
</g>
</svg>
