<?xml version="1.0" encoding="utf-8"?>
<!-- Generator: Adobe Illustrator 25.2.1, SVG Export Plug-In . SVG Version: 6.00 Build 0)  -->
<svg version="1.1" id="Layer_1" xmlns="http://www.w3.org/2000/svg" xmlns:xlink="http://www.w3.org/1999/xlink" x="0px" y="0px"
	 viewBox="0 0 576 379.5" style="enable-background:new 0 0 576 379.5;" xml:space="preserve">
<style type="text/css">
	.st0{fill:#333333;}
</style>
<g id="Layer_2_1_">
	<g id="Layer_1-2">
		<path class="st0" d="M353.7,224.4c-3.9-0.2-7.6,1.6-9.9,4.7c-2.3,3.1-3.4,7.9-3.4,14.4c0,12.6,4.4,18.9,13.3,18.9
			c3.9,0.1,7.7-1.6,10-4.8c2.4-3.1,3.6-7.8,3.6-14.1c0-6.3-1.2-11-3.6-14.3C361.4,226,357.6,224.3,353.7,224.4z"/>
		<path class="st0" d="M560.2,0H15.8C7.1,0,0,7.1,0,15.8c0,0,0,0,0,0v347.9c0,8.7,7.1,15.8,15.8,15.8h544.4
			c8.7,0,15.8-7.1,15.8-15.8V15.8C576,7.1,568.9,0,560.2,0z M80,350.9c0,5.5-4.5,10-10,10s-10-4.5-10-10v-27c0-5.5,4.5-10,10-10
			s10,4.5,10,10V350.9z M80,269.4c0,5.5-4.5,10-10,10s-10-4.5-10-10v-54.6c0-5.5,4.5-10,10-10s10,4.5,10,10V269.4z M80,160.2
			c0,5.5-4.5,10-10,10s-10-4.5-10-10v-54.6c0-5.5,4.5-10,10-10s10,4.5,10,10V160.2z M80,51c0,5.5-4.5,10-10,10s-10-4.5-10-10V24
			c0-5.5,4.5-10,10-10s10,4.5,10,10V51z M176,136c0-15,4.3-26.5,12.9-34.7s19.7-12.2,33.4-12.2s24.8,4.1,33.3,12.2
			c8.5,8.1,12.7,19.7,12.7,34.7s-4.2,26.5-12.7,34.6s-19.6,12.2-33.3,12.2s-24.8-4-33.4-12.2S176,150.9,176,136z M211.8,287.3
			L318.5,92.2h45.7L257.5,287.3H211.8z M387.2,278.2c-8.5,8.1-19.6,12.1-33.2,12.1s-24.8-4-33.3-12.1S308,258.5,308,243.5
			s4.2-26.5,12.7-34.6s19.6-12.2,33.3-12.2s24.7,4,33.2,12.2s12.8,19.6,12.8,34.6S395.7,270,387.2,278.2L387.2,278.2z M516,350.9
			c0,5.5-4.5,10-10,10s-10-4.5-10-10v-27c0-5.5,4.5-10,10-10s10,4.5,10,10V350.9z M516,269.4c0,5.5-4.5,10-10,10s-10-4.5-10-10
			v-54.6c0-5.5,4.5-10,10-10s10,4.5,10,10V269.4z M516,160.2c0,5.5-4.5,10-10,10s-10-4.5-10-10v-54.6c0-5.5,4.5-10,10-10
			s10,4.5,10,10V160.2z M516,51c0,5.5-4.5,10-10,10s-10-4.5-10-10V24c0-5.5,4.5-10,10-10s10,4.5,10,10V51z"/>
		<path class="st0" d="M232,150.1c2.4-3.1,3.6-7.8,3.6-14.1c0-12.8-4.5-19.2-13.6-19.2s-13.3,6.4-13.3,19.2s4.5,18.8,13.3,18.8
			C226.3,154.8,229.6,153.3,232,150.1z"/>
	</g>
</g>
</svg>
