<?xml version="1.0" encoding="utf-8"?>
<!-- Generator: Adobe Illustrator 25.2.1, SVG Export Plug-In . SVG Version: 6.00 Build 0)  -->
<svg version="1.1" id="Layer_1" xmlns="http://www.w3.org/2000/svg" xmlns:xlink="http://www.w3.org/1999/xlink" x="0px" y="0px"
	 viewBox="0 0 542 347" style="enable-background:new 0 0 542 347;" xml:space="preserve">
<style type="text/css">
	.st0{fill:none;stroke:#000000;stroke-width:25;stroke-miterlimit:10;}
</style>
<g id="Layer_2_1_">
	<g id="Layer_1-2">
		<path class="st0" d="M527,84.9v196.2c0,26.5-21.5,48-48,48H63c-26.5,0-48-21.5-48-48V84.9 M271,273.9
			c23.2,0.4,56.6-29.2,73.4-41.4c132.7-96.3,142.8-104.7,173.4-128.7c5.8-4.5,9.2-11.5,9.2-18.9v-19c0-26.5-21.5-48-48-48H63
			c-26.5,0-48,21.5-48,48v19c0,7.4,3.4,14.3,9.2,18.9c30.6,23.9,40.7,32.4,173.4,128.7C214.4,244.7,247.8,274.3,271,273.9z"/>
	</g>
</g>
</svg>
