<?xml version="1.0" encoding="utf-8"?>
<!-- Generator: Adobe Illustrator 25.2.1, SVG Export Plug-In . SVG Version: 6.00 Build 0)  -->
<svg version="1.1" id="Layer_1" xmlns="http://www.w3.org/2000/svg" xmlns:xlink="http://www.w3.org/1999/xlink" x="0px" y="0px"
	 viewBox="0 0 399.5 300.2" style="enable-background:new 0 0 399.5 300.2;" xml:space="preserve">
<style type="text/css">
	.st0{fill:none;stroke:#000000;stroke-width:10;stroke-miterlimit:10;}
</style>
<path d="M216.5,282.3h47.6c3.5,0,6.4,2.9,6.4,6.4v5.2c0,3.5-2.9,6.4-6.4,6.4h-47.6c-3.5,0-6.4-2.9-6.4-6.4v-5.2
	C210.1,285.2,213,282.3,216.5,282.3z"/>
<path class="st0" d="M364.7,183c0-98.3-73.8-178-164.9-178s-165,79.7-165,178"/>
<path d="M0,199.7c0,32.8,19.2,60,44.2,64.5c3.9,0.8,7.4-3.1,7.4-8.2V143.4c0-5.1-3.5-9-7.4-8.3C19.2,139.6,0,166.8,0,199.7z"/>
<path d="M399.5,199.7c0,32.8-19.2,60-44.2,64.5c-3.9,0.8-7.4-3.1-7.4-8.2V143.4c0-5.1,3.5-9,7.4-8.3
	C380.3,139.6,399.5,166.8,399.5,199.7z"/>
<path class="st0" d="M382.3,226.9c0,0-41.6,57.2-138.4,64.3"/>
</svg>
