<?xml version="1.0" encoding="utf-8"?>
<!-- Generator: Adobe Illustrator 25.2.1, SVG Export Plug-In . SVG Version: 6.00 Build 0)  -->
<svg version="1.1" id="Layer_1" xmlns="http://www.w3.org/2000/svg" xmlns:xlink="http://www.w3.org/1999/xlink" x="0px" y="0px"
	 viewBox="0 0 603 535" style="enable-background:new 0 0 603 535;" xml:space="preserve">
<style type="text/css">
	.st0{fill:#333333;stroke:#000000;stroke-width:10;stroke-miterlimit:10;}
</style>
<path class="st0" d="M335,18c12.1,0.1,21.9,9.9,22,22v86H249V40c0.1-12.1,9.9-21.9,22-22H335 M543,82c21,0,38,17,38,38l0,0v352
	c0,21-17,38-38,38l0,0H63c-21,0-38-17-38-38l0,0V120c0-21,17-38,38-38h134v96h212V82H543 M303,370c40.9,0,74-33.1,74-74
	s-33.1-74-74-74s-74,33.1-74,74C229.1,336.8,262.2,369.9,303,370 M303,390c-12.4,0-24.6-2.4-36-7.2l-1.8-0.8H255
	c-32,0-60.5,20.6-70.4,51.1c-2.4,7.5-1.1,15.6,3.6,21.9c5,6.9,13,11,21.5,11h186.6c8.5,0,16.5-4.1,21.5-11c4.7-6.3,6-14.4,3.6-21.9
	c-9.9-30.5-38.3-51.1-70.4-51.1h-10.2l-1.9,0.8C327.5,387.6,315.3,390,303,390 M335,8h-64c-17.7,0-32,14.3-32,32v96h128V40
	C367,22.3,352.7,8,335,8z M543,72H399v96H207V72H63c-26.5,0-48,21.5-48,48l0,0v352c0,26.5,21.5,48,48,48h480c26.5,0,48-21.5,48-48
	V120C591,93.5,569.5,72,543,72z M303,360c-35.3,0-64-28.7-64-64s28.7-64,64-64s64,28.7,64,64C366.9,331.3,338.3,359.9,303,360z
	 M303,400c13.7,0,27.2-2.7,39.8-8h8.2c27.7,0,52.3,17.8,60.9,44.2c3.2,9.8-5.2,19.8-15.6,19.8H209.7c-10.4,0-18.8-10-15.6-19.8
	c8.6-26.4,33.2-44.2,60.9-44.2h8.2C275.8,397.3,289.3,400,303,400z"/>
</svg>
