<?xml version="1.0" encoding="utf-8"?>
<!-- Generator: Adobe Illustrator 25.2.1, SVG Export Plug-In . SVG Version: 6.00 Build 0)  -->
<svg version="1.1" id="Layer_1" xmlns="http://www.w3.org/2000/svg" xmlns:xlink="http://www.w3.org/1999/xlink" x="0px" y="0px"
	 viewBox="0 0 522.3 261.3" style="enable-background:new 0 0 522.3 261.3;" xml:space="preserve">
<style type="text/css">
	.st0{fill:#231916;}
</style>
<path class="st0" d="M6.8,227.4v-5l18.7-2.1v5.1c0,10.1,4.7,16.2,12.4,16.2s12.4-5.1,12.4-13.2s-3.3-15-17.7-29.9
	C13.4,179,7.9,168.3,7.9,153.1c0-20.5,11-34,29.5-34s29.4,13.5,29.4,34.2v3.6L48.1,159v-3.9c0-10.7-3.8-16.2-10.6-16.2
	s-10.6,4.5-10.6,13.2s4.1,15,17.8,29.8c18.6,20.2,24.6,30.3,24.6,45.5c0,19.7-12.8,34-31.2,34S6.8,247.1,6.8,227.4z"/>
<path class="st0" d="M80.6,259.4V129.3l19.4-8.2v58.3h23v-50.1l19.4-8.2v138.3H123v-60.3h-23v60.3L80.6,259.4z"/>
<path class="st0" d="M156.4,228v-75.5c0-19.9,12.5-33.4,31.1-33.4s31,13.5,31,33.4V228c0,19.9-12.4,33.4-31,33.4
	S156.4,247.9,156.4,228z M199.2,228v-75.5c0-8.7-4.6-13.6-11.7-13.6c-7.1,0-11.7,4.9-11.7,13.6V228c0,8.7,4.6,13.6,11.7,13.6
	C194.6,241.6,199.2,236.7,199.2,228z"/>
<path class="st0" d="M233.7,121.1h55v19.8H253v38.5h28.3v19.7H253v40.5h35.7v19.8h-55V121.1z"/>
<path class="st0" d="M305.7,121.1H336c18.5,0,30.3,13,30.3,33v16.2c0,19.9-11.8,33-30.3,33h-11v47.8l-19.3,8.3V121.1z M335.1,183.5
	c7.5,0,11.9-4.7,11.9-12.8v-17c0-8.1-4.4-12.8-11.9-12.8H325v42.6L335.1,183.5z"/>
<path class="st0" d="M425.1,259.4l-14-57.1H401v48.8l-19.3,8.3V121.1H412c18.4,0,30.3,13,30.3,33v15.2c0,12.8-4.9,22.7-13.3,28.3
	l14,53.5L425.1,259.4z M401,182.5h10.1c7.4,0,11.8-4.7,11.8-12.8v-16c0-8.1-4.4-12.8-11.8-12.8H401V182.5z"/>
<path class="st0" d="M456.1,228v-75.5c0-19.9,12.4-33.4,31-33.4c18.6,0,31.1,13.5,31.1,33.4V228c0,19.9-12.5,33.4-31.1,33.4
	S456.1,247.9,456.1,228z M498.8,228v-75.5c0-8.7-4.6-13.6-11.7-13.6s-11.7,4.9-11.7,13.6V228c0,8.7,4.6,13.6,11.7,13.6
	S498.8,236.7,498.8,228z"/>
<rect y="0" class="st0" width="522.3" height="95.3"/>
<path class="st0" d="M5.7,227v-5l18.7-2.1v5.1c0,10.1,4.7,16.2,12.4,16.2s12.4-5.1,12.4-13.2s-3.3-15-17.7-29.9
	c-19.2-19.5-24.7-30.2-24.7-45.4c0-20.5,11-34,29.5-34s29.4,13.5,29.4,34.2v3.6L47,158.6v-3.9c0-10.7-3.8-16.2-10.6-16.2
	s-10.6,4.5-10.6,13.2s4.1,15,17.8,29.8c18.6,20.2,24.6,30.3,24.6,45.5c0,19.7-12.8,34-31.2,34S5.7,246.7,5.7,227z"/>
<path class="st0" d="M79.5,259V128.9l19.4-8.2V179h23v-50.1l19.4-8.2V259h-19.4v-60.3h-23V259L79.5,259z"/>
<path class="st0" d="M155.2,227.6v-75.5c0-19.9,12.5-33.4,31.1-33.4s31,13.5,31,33.4v75.5c0,19.9-12.4,33.4-31,33.4
	S155.2,247.5,155.2,227.6z M198.1,227.6v-75.5c0-8.7-4.6-13.6-11.7-13.6c-7.1,0-11.7,4.9-11.7,13.6v75.5c0,8.7,4.6,13.6,11.7,13.6
	C193.5,241.2,198.1,236.3,198.1,227.6z"/>
<path class="st0" d="M232.6,120.7h55v19.8h-35.7V179h28.3v19.7h-28.3v40.5h35.7V259h-55V120.7z"/>
<path class="st0" d="M304.6,120.7h30.3c18.5,0,30.3,13,30.3,33v16.2c0,19.9-11.8,33-30.3,33h-11v47.8l-19.3,8.3V120.7z M334,183.1
	c7.5,0,11.9-4.7,11.9-12.8v-17c0-8.1-4.4-12.8-11.9-12.8h-10.1v42.6L334,183.1z"/>
<path class="st0" d="M424,259l-14-57.1h-10.1v48.8l-19.3,8.3V120.7h30.3c18.4,0,30.3,13,30.3,33v15.2c0,12.8-4.9,22.7-13.3,28.3
	l14,53.5L424,259z M399.9,182.1H410c7.4,0,11.8-4.7,11.8-12.8v-16c0-8.1-4.4-12.8-11.8-12.8h-10.1V182.1z"/>
<path class="st0" d="M455,227.6v-75.5c0-19.9,12.4-33.4,31-33.4c18.6,0,31.1,13.5,31.1,33.4v75.5c0,19.9-12.5,33.4-31.1,33.4
	S455,247.5,455,227.6z M497.7,227.6v-75.5c0-8.7-4.6-13.6-11.7-13.6s-11.7,4.9-11.7,13.6v75.5c0,8.7,4.6,13.6,11.7,13.6
	S497.7,236.3,497.7,227.6z"/>
<rect x="-1.1" y="-0.4" class="st0" width="522.3" height="95.3"/>
</svg>
