<?xml version="1.0" encoding="utf-8"?>
<!-- Generator: Adobe Illustrator 25.2.1, SVG Export Plug-In . SVG Version: 6.00 Build 0)  -->
<svg version="1.1" id="Layer_1" xmlns="http://www.w3.org/2000/svg" xmlns:xlink="http://www.w3.org/1999/xlink" x="0px" y="0px"
	 viewBox="0 0 525 521" style="enable-background:new 0 0 525 521;" xml:space="preserve">
<g>
	<path d="M391,29.6l102.5,23.6c-0.1,59-11.7,116.3-34.5,170.2c-22.1,52.3-53.8,99.2-94.1,139.5c-40.3,40.3-87.3,71.9-139.6,94
		c-53.9,22.8-111,34.4-170,34.5L31.6,389l110.6-47.4l49.1,60l12.4,15.1l17.6-8.3c41.4-19.5,78.7-45.8,111-78.1
		c32.3-32.3,58.6-69.7,78.1-111l8.3-17.6l-15.1-12.4l-60-49.1L391,29.6 M390.5,4.5c-9.6,0-18.3,5.7-22.1,14.5l-48,112
		c-4.2,9.8-1.4,21.3,6.9,28l60.6,49.6c-36.7,77.9-99.3,140.5-177.2,177.2l-49.6-60.6c-4.7-5.7-11.6-8.8-18.6-8.8
		c-3.2,0-6.3,0.6-9.4,1.9l-112,48c-10.7,4.7-16.6,16.2-14,27.6l24,104c2.5,10.9,12.2,18.6,23.4,18.6c0,0,0,0,0,0
		c256.1,0,464-207.5,464-464c0-11.2-7.7-20.9-18.6-23.4l-104-24C394.1,4.7,392.3,4.5,390.5,4.5L390.5,4.5z"/>
</g>
</svg>
