<?xml version="1.0" encoding="utf-8"?>
<!-- Generator: Adobe Illustrator 25.2.1, SVG Export Plug-In . SVG Version: 6.00 Build 0)  -->
<svg version="1.1" id="Layer_1" xmlns="http://www.w3.org/2000/svg" xmlns:xlink="http://www.w3.org/1999/xlink" x="0px" y="0px"
	 viewBox="0 0 506 506" style="enable-background:new 0 0 506 506;" xml:space="preserve">
<style type="text/css">
	.st0{fill:#333333;}
</style>
<g id="Layer_2_1_">
	<g id="Layer_1-2">
		<path class="st0" d="M270.7,184.4H235v67.7h35.7c12.6,0,21.9-2.9,28.1-8.8s9.2-14.3,9.2-25s-3.1-19.1-9.2-25
			S283.3,184.4,270.7,184.4z"/>
		<path class="st0" d="M253,0C113.3,0,0,113.3,0,253s113.3,253,253,253s253-113.3,253-253S392.7,0,253,0z M364.1,261.1
			c-7.2,13-18.2,23.4-33,31.4s-33.4,11.9-55.4,11.9H235v96.9h-65.8V131.4h106.5c21.5,0,39.7,3.7,54.6,11.1
			c14.9,7.5,26,17.7,33.4,30.8s11.2,28,11.2,45C375.1,233.3,371.3,248,364.1,261.1z"/>
	</g>
</g>
</svg>
