<?xml version="1.0" encoding="utf-8"?>
<!-- Generator: Adobe Illustrator 25.2.1, SVG Export Plug-In . SVG Version: 6.00 Build 0)  -->
<svg version="1.1" id="Layer_1" xmlns="http://www.w3.org/2000/svg" xmlns:xlink="http://www.w3.org/1999/xlink" x="0px" y="0px"
	 viewBox="0 0 100 100" style="enable-background:new 0 0 100 100;" xml:space="preserve">
<style type="text/css">
	.st0{fill:#FFFFFF;}
</style>
<g>
	<path d="M75.6,21.4H55.5v18.1h-11V21.4H24.3c-1.6,0-2.9,1.3-2.9,2.9v51.3c0,1.6,1.3,2.9,2.9,2.9c0,0,0,0,0,0h51.3
		c1.6,0,2.9-1.3,2.9-2.9c0,0,0,0,0,0V24.3C78.5,22.7,77.2,21.4,75.6,21.4z"/>
	<path class="st0" d="M43.2,20.9l-9.6-5.6L24.3,10c-0.4-0.2-1-0.1-1.2,0.3C23,10.4,23,10.6,23,10.7v4.4h-8.1
		C4.5,15.1-2.7,25.6,1,35.4l0.9,2.2c0,0.1,0.1,0,0.1,0l-0.2-0.9c-1-3.9,1.3-7.8,5.2-8.8c0.6-0.2,1.2-0.2,1.8-0.2H23v4.4
		c0,0.5,0.4,0.9,0.8,0.9c0.2,0,0.3,0,0.5-0.1l9.3-5.3l9.6-5.6c0.3-0.2,0.4-0.5,0.2-0.8C43.4,21,43.3,20.9,43.2,20.9z"/>
	<path class="st0" d="M56.8,79.1l9.6,5.6l9.3,5.4c0.4,0.2,1,0.1,1.2-0.3c0.1-0.1,0.1-0.3,0.1-0.4v-4.4h8.1
		c10.5,0,17.7-10.5,13.9-20.2l-0.9-2.2c0-0.1-0.1,0-0.1,0l0.2,0.9c1,3.9-1.3,7.8-5.2,8.8c-0.6,0.2-1.2,0.2-1.8,0.2H77v-4.4
		c0-0.5-0.4-0.9-0.9-0.9c-0.2,0-0.3,0-0.4,0.1l-9.3,5.4l-9.6,5.6c-0.3,0.1-0.5,0.4-0.3,0.7C56.5,79,56.6,79.1,56.8,79.1z"/>
</g>
</svg>
