<?xml version="1.0" encoding="utf-8"?>
<!-- Generator: Adobe Illustrator 25.2.1, SVG Export Plug-In . SVG Version: 6.00 Build 0)  -->
<svg version="1.1" id="Layer_1" xmlns="http://www.w3.org/2000/svg" xmlns:xlink="http://www.w3.org/1999/xlink" x="0px" y="0px"
	 viewBox="0 0 535 512.1" style="enable-background:new 0 0 535 512.1;" xml:space="preserve">
<style type="text/css">
	.st0{fill:none;stroke:#000000;stroke-width:15;stroke-miterlimit:10;}
</style>
<path class="st0" d="M267.4,10c8.4-0.1,16.1,4.6,19.8,12.2l65.3,132.4l2.4,4.7l5.2,0.8l146.1,21.3c12,1.8,20.3,12.9,18.6,24.9
	c-0.7,4.8-3,9.3-6.5,12.7L412.6,322l-3.7,3.6l0.8,5.2l25,145.5c1.2,6.3-0.5,12.8-4.7,17.7c-4.2,5-10.4,7.9-17,8
	c-3.5,0-7-0.8-10.1-2.5l-130.7-68.7l-4.7-2.5l-4.7,2.5l-130.7,68.7c-3.1,1.7-6.6,2.6-10.1,2.6c-6.6-0.1-12.8-3-17-8.1
	c-4.2-4.9-5.9-11.4-4.7-17.7l25-145.5l0.8-5.2l-3.7-3.6L16.7,218.9c-8.7-8.5-8.9-22.4-0.4-31.1c3.4-3.4,7.7-5.7,12.5-6.4l146.1-21.3
	l5.2-0.8l2.4-4.7l65.3-132.4C251.4,14.7,259.1,9.9,267.4,10"/>
</svg>
