<?xml version="1.0" encoding="utf-8"?>
<!-- Generator: Adobe Illustrator 25.2.1, SVG Export Plug-In . SVG Version: 6.00 Build 0)  -->
<svg version="1.1" id="Layer_1" xmlns="http://www.w3.org/2000/svg" xmlns:xlink="http://www.w3.org/1999/xlink" x="0px" y="0px"
	 viewBox="0 0 662 466" style="enable-background:new 0 0 662 466;" xml:space="preserve">
<style type="text/css">
	.st0{fill:#333333;stroke:#000000;stroke-width:10;stroke-miterlimit:10;}
</style>
<g id="Layer_2_1_">
	<g id="Layer_1-2">
		<path class="st0" d="M463,20c12.1,0.1,21.9,9.9,22,22v106.1h47.5c14.3-0.1,28.1,5.6,38.2,15.8l58.5,58.5
			c10.2,10.1,15.9,23.8,15.8,38.1V346c0,3.3-2.7,6-6,6h-29.7l2.3,11.9c0.9,4.6,1.4,9.4,1.4,14.1c0,38.7-31.3,70-70,70
			c-38.7,0-70-31.3-70-70c0-4.7,0.5-9.3,1.4-13.9l2.5-12.1H289.3l2.3,11.9c0.9,4.6,1.4,9.4,1.4,14.1c-0.1,38.6-31.4,69.9-70,70
			c-22.1,0-42.9-10.5-56-28.4l-8-10.7l-8,10.7c-13.1,17.9-33.9,28.4-56,28.4c-38.6-0.1-69.9-31.4-70-70V42c0.1-12.1,9.9-21.9,22-22
			H463 M485,244h126.2l-17-17.1l-43.3-43.3c-4.9-4.9-11.5-7.6-18.4-7.6H485V244 M543,420c23.2,0,42-18.8,42-42s-18.8-42-42-42
			s-42,18.8-42,42S519.8,420,543,420 M223,420c23.2,0,42-18.8,42-42s-18.8-42-42-42s-42,18.8-42,42S199.8,420,223,420 M95,420
			c23.2,0,42-18.8,42-42s-18.8-42-42-42s-42,18.8-42,42S71.8,420,95,420 M463,10H47c-17.7,0-32,14.3-32,32v336
			c-0.1,44.1,35.5,79.9,79.6,80c25.4,0.1,49.3-12,64.4-32.4c26.2,35.5,76.1,43,111.6,16.8c20.4-15.1,32.5-39,32.4-64.4
			c0-5.4-0.6-10.7-1.6-16h163.2c-1.1,5.3-1.6,10.6-1.6,16c0,44.2,35.8,80,80,80s80-35.8,80-80c0-5.4-0.6-10.7-1.6-16H639
			c8.8,0,16-7.2,16-16v-85.5c0-17-6.7-33.2-18.7-45.2l-58.5-58.5c-12-12-28.3-18.7-45.3-18.7H495V42C495,24.3,480.7,10,463,10z
			 M495,234v-48h37.5c4.2,0,8.3,1.7,11.3,4.7l43.3,43.3H495z M543,410c-17.7,0-32-14.3-32-32s14.3-32,32-32s32,14.3,32,32
			C574.9,395.7,560.7,409.9,543,410z M223,410c-17.7,0-32-14.3-32-32s14.3-32,32-32s32,14.3,32,32C254.9,395.7,240.7,409.9,223,410z
			 M95,410c-17.7,0-32-14.3-32-32s14.3-32,32-32s32,14.3,32,32C126.9,395.7,112.7,409.9,95,410z"/>
	</g>
</g>
</svg>
