<svg xmlns="http://www.w3.org/2000/svg" viewBox="0 0 576 448"><defs><style>.cls-1{fill:#eee;}</style></defs><g id="Layer_2" data-name="Layer 2"><g id="Layer_1-2" data-name="Layer 1"><path class="cls-1" d="M528,0H48A48,48,0,0,0,0,48V400a48,48,0,0,0,48,48H528a48,48,0,0,0,48-48V48A48,48,0,0,0,528,0ZM176,96a64,64,0,1,1-64,64A64.1,64.1,0,0,1,176,96ZM288,332.8c0,10.6-10,19.2-22.4,19.2H86.4C74,352,64,343.4,64,332.8V313.6c0-31.8,30.1-57.6,67.2-57.6h5a103,103,0,0,0,79.6,0h5c37.1,0,67.2,25.8,67.2,57.6ZM512,280a8,8,0,0,1-8,8H360a8,8,0,0,1-8-8V264a8,8,0,0,1,8-8H504a8,8,0,0,1,8,8Zm0-64a8,8,0,0,1-8,8H360a8,8,0,0,1-8-8V200a8,8,0,0,1,8-8H504a8,8,0,0,1,8,8Zm0-64a8,8,0,0,1-8,8H360a8,8,0,0,1-8-8V136a8,8,0,0,1,8-8H504a8,8,0,0,1,8,8Z"/></g></g></svg>