<?xml version="1.0" encoding="utf-8"?>
<!-- Generator: Adobe Illustrator 25.2.1, SVG Export Plug-In . SVG Version: 6.00 Build 0)  -->
<svg version="1.1" id="Layer_1" xmlns="http://www.w3.org/2000/svg" xmlns:xlink="http://www.w3.org/1999/xlink" x="0px" y="0px"
	 viewBox="0 0 100 100" style="enable-background:new 0 0 100 100;" xml:space="preserve">
<path d="M35.1,50c11,0,19.9-8.9,19.9-19.9s-8.9-19.9-19.9-19.9s-19.9,8.9-19.9,19.9S24.1,50,35.1,50z M49,55h-2.6
	c-3.4,1.6-7.3,2.5-11.3,2.5s-7.9-0.9-11.3-2.5h-2.6C9.7,55,0.3,64.3,0.3,75.8v6.5c0,4.1,3.3,7.5,7.5,7.5h42.7
	c-0.4-1.1-0.5-2.2-0.4-3.3l1.1-9.5l0.2-1.7l1.2-1.2l12-12C60.7,57.7,55.2,55,49,55z M56,77.5L55,87c-0.2,1.6,1.2,2.9,2.7,2.7
	l9.5-1.1l21.4-21.4L77.5,56.1L56,77.5z M98.6,52l-5.9-5.9c-1.4-1.4-3.8-1.4-5.2,0L81.6,52L81,52.6l11.1,11.1l6.5-6.5
	C100.1,55.8,100.1,53.5,98.6,52z"/>
</svg>
