<?xml version="1.0" encoding="utf-8"?>
<!-- Generator: Adobe Illustrator 25.2.1, SVG Export Plug-In . SVG Version: 6.00 Build 0)  -->
<svg version="1.1" id="Layer_1" xmlns="http://www.w3.org/2000/svg" xmlns:xlink="http://www.w3.org/1999/xlink" x="0px" y="0px"
	 viewBox="0 0 30 34.5" style="enable-background:new 0 0 30 34.5;" xml:space="preserve">
<style type="text/css">
	.st0{fill:#EEEEEE;}
</style>
<path class="st0" d="M14.5,8.2L14.5,8.2c-2,0-3.6-1.6-3.6-3.6l0,0c0-2,1.6-3.6,3.6-3.6l0,0c2,0,3.6,1.6,3.6,3.6l0,0
	C18.1,6.6,16.5,8.2,14.5,8.2z"/>
<path class="st0" d="M14.5,20.8L14.5,20.8c-2,0-3.6-1.6-3.6-3.6l0,0c0-2,1.6-3.6,3.6-3.6l0,0c2,0,3.6,1.6,3.6,3.6l0,0
	C18.1,19.2,16.5,20.8,14.5,20.8z"/>
<path class="st0" d="M14.5,33.5L14.5,33.5c-2,0-3.6-1.6-3.6-3.6l0,0c0-2,1.6-3.6,3.6-3.6l0,0c2,0,3.6,1.6,3.6,3.6l0,0
	C18.1,31.9,16.5,33.5,14.5,33.5z"/>
</svg>
